<?xml version="1.0" standalone="no"?>
<!DOCTYPE svg PUBLIC "-//W3C//DTD SVG 20010904//EN"
 "http://www.w3.org/TR/2001/REC-SVG-20010904/DTD/svg10.dtd">
<svg version="1.0" xmlns="http://www.w3.org/2000/svg"
 width="540.000000pt" height="540.000000pt" viewBox="0 0 540.000000 540.000000"
 preserveAspectRatio="xMidYMid meet">
<metadata>
Created by potrace 1.11, written by Peter Selinger 2001-2013
</metadata>
<g transform="translate(0.000000,540.000000) scale(0.100000,-0.100000)"
fill="#000000" stroke="none">
<path d="M2710 5392 c-246 -40 -455 -178 -555 -366 -36 -69 -62 -178 -59 -250
l3 -61 -63 -2 c-75 -3 -161 -33 -219 -77 -44 -33 -93 -117 -100 -171 -10 -71
36 -174 102 -231 l25 -22 -34 -7 c-143 -31 -276 -176 -285 -308 -7 -115 38
-214 132 -289 l36 -28 -42 0 c-47 0 -46 3 -31 -103 24 -173 36 -261 46 -342 3
-33 8 -69 10 -80 2 -11 7 -40 10 -65 3 -25 7 -56 9 -70 2 -14 9 -63 15 -110 6
-47 13 -96 15 -110 2 -14 7 -50 10 -80 3 -30 8 -62 10 -70 2 -8 6 -40 10 -71
3 -31 7 -65 9 -75 2 -11 7 -46 10 -79 4 -33 9 -67 11 -75 2 -8 6 -37 10 -65
10 -90 14 -118 34 -265 11 -80 25 -183 31 -230 6 -47 13 -96 15 -110 2 -14 7
-50 10 -80 3 -30 10 -82 15 -115 10 -63 15 -98 25 -180 3 -27 8 -59 10 -70 2
-11 7 -45 10 -75 3 -30 8 -66 10 -80 2 -14 9 -63 15 -110 6 -47 13 -99 16
-116 3 -17 7 -46 9 -65 2 -19 8 -70 14 -114 12 -90 18 -130 26 -195 3 -25 12
-92 20 -150 8 -58 18 -125 21 -150 3 -25 7 -52 10 -61 4 -14 125 -16 1291 -15
l1287 1 7 35 c4 19 10 60 14 90 3 30 8 67 11 83 11 67 13 85 19 137 3 30 10
82 15 115 5 33 12 87 15 120 4 33 8 67 10 75 3 8 7 38 10 65 5 51 14 114 21
150 2 11 6 45 9 75 3 30 8 66 10 80 3 14 7 48 11 75 3 28 7 57 9 65 1 8 6 40
9 70 14 108 17 135 21 160 5 34 24 176 30 225 3 22 7 58 11 80 15 104 22 156
29 215 3 25 8 56 10 70 4 23 19 137 31 235 2 22 7 51 9 65 2 14 7 50 11 80 4
30 8 64 9 75 7 47 16 112 21 145 5 37 10 73 19 155 4 28 10 77 15 110 5 33 12
80 15 105 3 25 7 56 10 70 2 14 7 48 10 75 3 28 10 84 15 125 6 41 13 91 15
110 3 19 7 46 10 60 2 14 7 52 10 85 3 33 8 68 11 78 4 14 -1 17 -31 17 l-36
0 17 33 c12 21 18 57 18 107 1 80 -20 137 -70 190 -16 17 -25 43 -30 80 -22
180 -154 329 -349 391 -75 25 -111 30 -194 32 l-67 1 19 37 c78 158 -5 355
-187 444 -124 60 -309 63 -426 6 -19 -10 -44 -17 -55 -16 -11 1 -43 2 -71 3
-45 2 -55 7 -99 48 -26 26 -59 67 -72 91 -93 175 -288 313 -508 359 -36 7
-260 12 -295 6z"/>
<path d="M1327 916 c-21 -8 -56 -26 -78 -40 -31 -21 -43 -24 -59 -16 -10 5
-30 10 -43 10 -28 0 -77 -35 -77 -56 0 -9 -11 -14 -35 -14 -53 0 -99 -23 -131
-66 -53 -69 -40 -188 28 -252 l25 -22 -37 -39 c-114 -119 -20 -319 143 -305
51 5 102 30 132 66 l25 30 30 -25 c94 -80 238 -51 288 57 12 25 22 55 22 67 0
12 11 34 25 51 29 34 34 102 11 133 -12 17 -10 25 16 72 59 104 47 215 -31
293 -68 67 -163 88 -254 56z"/>
<path d="M356 617 c-50 -28 -80 -84 -77 -143 4 -72 3 -97 -4 -130 -5 -22 -2
-36 8 -45 10 -9 12 -22 7 -39 -20 -69 48 -144 122 -135 22 3 49 10 59 15 15 9
21 5 34 -20 41 -79 169 -79 210 0 19 38 19 90 -1 118 -14 21 -13 24 20 55 62
59 57 150 -11 194 -15 10 -40 31 -56 46 -21 23 -34 28 -57 25 -23 -4 -36 2
-57 25 -57 59 -131 72 -197 34z"/>
</g>
</svg>
